<svg xmlns="http://www.w3.org/2000/svg" version="1.1">
    <defs>
        <symbol id="icon-search">
            <svg aria-hidden="true" width="25" height="25" viewBox="0 0 17.283 18.023">
                <g transform="translate(-1463.392 -389.942)">
                    <g>
                        <path d="M1470.762,390.983a6.426,6.426,0,1,0,6.425,6.425,6.432,6.432,0,0,0-6.425-6.425m0,13.7a7.37,7.37,0,1,1,7.37-7.37,7.379,7.379,0,0,1-7.37,7.37"></path>
                    </g>
                    <rect width="0.944" height="7.181" transform="translate(1475.069 402.736) rotate(-43.24)"></rect>
                </g>
            </svg>
        </symbol>
        <symbol id="icon-chat">
            <svg aria-hidden="true" width="25" height="25" viewBox="0 0 21.48 20.219">
                <g transform="translate(-700.152 -165)">
                    <g transform="translate(700.152 165)">
                        <path d="M706.44,182.9l-2.03,2.034a.737.737,0,0,1-.661.276.775.775,0,0,1-.319-.663c.011-.535,0-1.069,0-1.628l-.3-.019a8.058,8.058,0,0,1-1.168-.083,2.3,2.3,0,0,1-1.8-2.257c0-1.842.025-3.685-.01-5.527a2.4,2.4,0,0,1,2.386-2.411c.2,0,.389,0,.614,0v-.288q0-2.141,0-4.281A3,3,0,0,1,706.2,165q6.218,0,12.436,0a2.971,2.971,0,0,1,2.975,2.867c.035,1.546.013,3.094.012,4.642,0,1.124.009,2.25-.016,3.374a2.988,2.988,0,0,1-2.59,2.724c-.5.04-1.01.029-1.515.041-.1,0-.2,0-.328,0v.283q0,1.122,0,2.243c0,.2.045.442-.2.529a.644.644,0,0,1-.683-.177c-.706-.692-1.4-1.4-2.1-2.1-.052-.05-.107-.1-.2-.183,0,.45,0,.853,0,1.257a2.368,2.368,0,0,1-1.886,2.341,2.9,2.9,0,0,1-.608.052q-2.378.007-4.757,0Zm9.852-2.84c0-.656,0-1.242,0-1.83,0-.4.176-.578.58-.582.513,0,1.027,0,1.54,0a3.664,3.664,0,0,0,.676-.031,2,2,0,0,0,1.645-2.01c0-2.514-.015-5.029.009-7.542a2.073,2.073,0,0,0-2.112-2.093q-6.2.005-12.39.006a2.354,2.354,0,0,0-.58.073,2.032,2.032,0,0,0-1.531,2.044q0,3.148.018,6.3c0,.438,0,.876.006,1.314a2.031,2.031,0,0,0,2.053,1.946c2.393-.02,4.787-.006,7.18-.007a1.1,1.1,0,0,1,.845.345C714.892,178.671,715.57,179.337,716.292,180.061Zm-3.182-1.406h-.322q-3.16,0-6.319,0a6.871,6.871,0,0,1-.743-.043,3.012,3.012,0,0,1-2.574-2.855c0-.627,0-1.253,0-1.88,0-.08-.007-.159-.011-.251-.222,0-.418,0-.613,0a1.385,1.385,0,0,0-1.393,1.417q0,2.719,0,5.436a1.3,1.3,0,0,0,1.1,1.373,6.592,6.592,0,0,0,1.419.045.7.7,0,0,1,.785.789c-.024.295,0,.592,0,.891l1.59-1.561c.1-.006.193-.016.289-.016h2.628c.952,0,1.9.007,2.854-.008a1.318,1.318,0,0,0,1.284-1.15c.05-.546.026-1.1.034-1.65C713.112,179.019,713.11,178.847,713.11,178.655Z" transform="translate(-700.152 -165)"></path>
                    </g>
                </g>
            </svg>
        </symbol>
        <symbol id="icon-hexa-plus">
            <svg aria-hidden="true" viewBox="0 0 50.464 58.271">
                <g stroke-width="1.5" transform="translate(-1624 -187.923)">
                    <path style="fill: var(--surface, transparent); stroke: var(--stroke, #fff)" d="M50.464 43.992L25.732 58.271 1 43.992V15.434L25.732 1.155l24.732 14.279z" transform="translate(1623.5 187.345)" class="hexagon-stroke"></path>
                    <g style="stroke: var(--symbol, #fff)" transform="translate(627 -5248.5)">
                        <path d="M0 0v15" transform="translate(1022.5 5458.5)"></path>
                        <path d="M0 0v15" transform="rotate(90 -2218 3248)"></path>
                    </g>
                </g>
            </svg>
        </symbol>
        <symbol id="icon-hexa-arrow-right">
            <svg aria-hidden="true" viewBox="0 0 50.464 58.271">
                <g stroke-width="1.5" transform="translate(-1624 -187.923)">
                    <path style="fill: var(--surface, transparent); stroke: var(--stroke, #fff)" d="M50.464 43.992L25.732 58.271 1 43.992V15.434L25.732 1.155l24.732 14.279z" transform="translate(1623.5 187.345)"></path>
                    <path style="stroke: var(--symbol, #fff); fill: var(--symbol-fill, transparent)" d="M0 0l7.432 5.674L14.864 0" transform="rotate(-90 935.432 -711.068)"></path>
                </g>
            </svg>
        </symbol>
        <symbol id="icon-hexa-arrow-left">
            <svg aria-hidden="true" viewBox="0 0 50.464 58.271">
                <g stroke-width="1.5" transform="translate(-1624 -187.923)">
                    <path style="fill: var(--surface, transparent); stroke: var(--stroke, #fff)" d="M50.464 43.992L25.732 58.271 1 43.992V15.434L25.732 1.155l24.732 14.279z" transform="translate(1623.5 187.345)"></path>
                    <path style="stroke: var(--symbol, #fff); fill: var(--symbol-fill, transparent)" d="M0 5.675L7.432 0l7.432 5.675" transform="rotate(-90 935.432 -711.068)"></path>
                </g>
            </svg>
        </symbol>
        <symbol id="icon-instagram">
            <svg aria-hidden="true" width="20" height="20" viewBox="0 0 24 24">
                <path d="M12 2.163c3.204 0 3.584.012 4.85.07 3.252.148 4.771 1.691 4.919 4.919.058 1.265.069 1.645.069 4.849 0 3.205-.012 3.584-.069 4.849-.149 3.225-1.664 4.771-4.919 4.919-1.266.058-1.644.07-4.85.07-3.204 0-3.584-.012-4.849-.07-3.26-.149-4.771-1.699-4.919-4.92-.058-1.265-.07-1.644-.07-4.849 0-3.204.013-3.583.07-4.849.149-3.227 1.664-4.771 4.919-4.919 1.266-.057 1.645-.069 4.849-.069zm0-2.163c-3.259 0-3.667.014-4.947.072-4.358.2-6.78 2.618-6.98 6.98-.059 1.281-.073 1.689-.073 4.948 0 3.259.014 3.668.072 4.948.2 4.358 2.618 6.78 6.98 6.98 1.281.058 1.689.072 4.948.072 3.259 0 3.668-.014 4.948-.072 4.354-.2 6.782-2.618 6.979-6.98.059-1.28.073-1.689.073-4.948 0-3.259-.014-3.667-.072-4.947-.196-4.354-2.617-6.78-6.979-6.98-1.281-.059-1.69-.073-4.949-.073zm0 5.838c-3.403 0-6.162 2.759-6.162 6.162s2.759 6.163 6.162 6.163 6.162-2.759 6.162-6.163c0-3.403-2.759-6.162-6.162-6.162zm0 10.162c-2.209 0-4-1.79-4-4 0-2.209 1.791-4 4-4s4 1.791 4 4c0 2.21-1.791 4-4 4zm6.406-11.845c-.796 0-1.441.645-1.441 1.44s.645 1.44 1.441 1.44c.795 0 1.439-.645 1.439-1.44s-.644-1.44-1.439-1.44z"/>
            </svg>
        </symbol>
        <symbol id="icon-facebook">
            <svg aria-hidden="true" width="20" height="20" viewBox="0 0 24 24">
                <path d="M9 8h-3v4h3v12h5v-12h3.642l.358-4h-4v-1.667c0-.955.192-1.333 1.115-1.333h2.885v-5h-3.808c-3.596 0-5.192 1.583-5.192 4.615v3.385z"/>
            </svg>
        </symbol>
        <symbol id="icon-youtube">
            <svg aria-hidden="true" width="20" height="20" viewBox="0 0 24 24">
                <path d="M19.615 3.184c-3.604-.246-11.631-.245-15.23 0-3.897.266-4.356 2.62-4.385 8.816.029 6.185.484 8.549 4.385 8.816 3.6.245 11.626.246 15.23 0 3.897-.266 4.356-2.62 4.385-8.816-.029-6.185-.484-8.549-4.385-8.816zm-10.615 12.816v-8l8 3.993-8 4.007z"/>
            </svg>
        </symbol>
        <symbol id="icon-linkedin">
            <svg aria-hidden="true" width="20" height="20" viewBox="0 0 24 24">
                <path d="M4.98 3.5c0 1.381-1.11 2.5-2.48 2.5s-2.48-1.119-2.48-2.5c0-1.38 1.11-2.5 2.48-2.5s2.48 1.12 2.48 2.5zm.02 4.5h-5v16h5v-16zm7.982 0h-4.968v16h4.969v-8.399c0-4.67 6.029-5.052 6.029 0v8.399h4.988v-10.131c0-7.88-8.922-7.593-11.018-3.714v-2.155z"/>
            </svg>
        </symbol>
        <symbol id="icon-wechat">
            <svg aria-hidden="true" width="20" height="20" viewBox="0 0 24 24" fill-rule="evenodd" clip-rule="evenodd">
                <path d="M21.502 19.525c1.524-1.105 2.498-2.738 2.498-4.554 0-3.326-3.237-6.023-7.229-6.023s-7.229 2.697-7.229 6.023c0 3.327 3.237 6.024 7.229 6.024.825 0 1.621-.117 2.36-.33l.212-.032c.139 0 .265.043.384.111l1.583.914.139.045c.133 0 .241-.108.241-.241l-.039-.176-.326-1.215-.025-.154c0-.162.08-.305.202-.392zm-12.827-17.228c-4.791 0-8.675 3.236-8.675 7.229 0 2.178 1.168 4.139 2.997 5.464.147.104.243.276.243.471l-.03.184-.391 1.458-.047.211c0 .16.13.29.289.29l.168-.054 1.899-1.097c.142-.082.293-.133.46-.133l.255.038c.886.255 1.842.397 2.832.397l.476-.012c-.188-.564-.291-1.158-.291-1.771 0-3.641 3.542-6.593 7.911-6.593l.471.012c-.653-3.453-4.24-6.094-8.567-6.094zm5.686 11.711c-.532 0-.963-.432-.963-.964 0-.533.431-.964.963-.964.533 0 .964.431.964.964 0 .532-.431.964-.964.964zm4.82 0c-.533 0-.964-.432-.964-.964 0-.533.431-.964.964-.964.532 0 .963.431.963.964 0 .532-.431.964-.963.964zm-13.398-5.639c-.639 0-1.156-.518-1.156-1.156 0-.639.517-1.157 1.156-1.157.639 0 1.157.518 1.157 1.157 0 .638-.518 1.156-1.157 1.156zm5.783 0c-.639 0-1.156-.518-1.156-1.156 0-.639.517-1.157 1.156-1.157.639 0 1.157.518 1.157 1.157 0 .638-.518 1.156-1.157 1.156z"/>
            </svg>
        </symbol>
        <symbol id="icon-discord">
            <svg aria-hidden="true" width="20" height="20" viewBox="0 0 24 24" fill-rule="evenodd" clip-rule="evenodd">
                <path d="M19.54 0c1.356 0 2.46 1.104 2.46 2.472v21.528l-2.58-2.28-1.452-1.344-1.536-1.428.636 2.22h-13.608c-1.356 0-2.46-1.104-2.46-2.472v-16.224c0-1.368 1.104-2.472 2.46-2.472h16.08zm-4.632 15.672c2.652-.084 3.672-1.824 3.672-1.824 0-3.864-1.728-6.996-1.728-6.996-1.728-1.296-3.372-1.26-3.372-1.26l-.168.192c2.04.624 2.988 1.524 2.988 1.524-1.248-.684-2.472-1.02-3.612-1.152-.864-.096-1.692-.072-2.424.024l-.204.024c-.42.036-1.44.192-2.724.756-.444.204-.708.348-.708.348s.996-.948 3.156-1.572l-.12-.144s-1.644-.036-3.372 1.26c0 0-1.728 3.132-1.728 6.996 0 0 1.008 1.74 3.66 1.824 0 0 .444-.54.804-.996-1.524-.456-2.1-1.416-2.1-1.416l.336.204.048.036.047.027.014.006.047.027c.3.168.6.3.876.408.492.192 1.08.384 1.764.516.9.168 1.956.228 3.108.012.564-.096 1.14-.264 1.74-.516.42-.156.888-.384 1.38-.708 0 0-.6.984-2.172 1.428.36.456.792.972.792.972zm-5.58-5.604c-.684 0-1.224.6-1.224 1.332 0 .732.552 1.332 1.224 1.332.684 0 1.224-.6 1.224-1.332.012-.732-.54-1.332-1.224-1.332zm4.38 0c-.684 0-1.224.6-1.224 1.332 0 .732.552 1.332 1.224 1.332.684 0 1.224-.6 1.224-1.332 0-.732-.54-1.332-1.224-1.332z"/>
            </svg>
        </symbol>
        <symbol id="icon-slack">
            <svg aria-hidden="true" width="20" height="20" viewBox="0 0 24 24" fill-rule="evenodd" clip-rule="evenodd">
                <path d="M22.672 15.226l-2.432.811.841 2.515c.33 1.019-.209 2.127-1.23 2.456-1.15.325-2.148-.321-2.463-1.226l-.84-2.518-5.013 1.677.84 2.517c.391 1.203-.434 2.542-1.831 2.542-.88 0-1.601-.564-1.86-1.314l-.842-2.516-2.431.809c-1.135.328-2.145-.317-2.463-1.229-.329-1.018.211-2.127 1.231-2.456l2.432-.809-1.621-4.823-2.432.808c-1.355.384-2.558-.59-2.558-1.839 0-.817.509-1.582 1.327-1.846l2.433-.809-.842-2.515c-.33-1.02.211-2.129 1.232-2.458 1.02-.329 2.13.209 2.461 1.229l.842 2.515 5.011-1.677-.839-2.517c-.403-1.238.484-2.553 1.843-2.553.819 0 1.585.509 1.85 1.326l.841 2.517 2.431-.81c1.02-.33 2.131.211 2.461 1.229.332 1.018-.21 2.126-1.23 2.456l-2.433.809 1.622 4.823 2.433-.809c1.242-.401 2.557.484 2.557 1.838 0 .819-.51 1.583-1.328 1.847m-8.992-6.428l-5.01 1.675 1.619 4.828 5.011-1.674-1.62-4.829z"/>
            </svg>
        </symbol>
        <symbol id="icon-spotify">
            <svg aria-hidden="true" width="20" height="20" viewBox="0 0 24 24" fill-rule="evenodd" clip-rule="evenodd">
                <path d="M19.098 10.638c-3.868-2.297-10.248-2.508-13.941-1.387-.593.18-1.22-.155-1.399-.748-.18-.593.154-1.22.748-1.4 4.239-1.287 11.285-1.038 15.738 1.605.533.317.708 1.005.392 1.538-.316.533-1.005.709-1.538.392zm-.126 3.403c-.272.44-.847.578-1.287.308-3.225-1.982-8.142-2.557-11.958-1.399-.494.15-1.017-.129-1.167-.623-.149-.495.13-1.016.624-1.167 4.358-1.322 9.776-.682 13.48 1.595.44.27.578.847.308 1.286zm-1.469 3.267c-.215.354-.676.465-1.028.249-2.818-1.722-6.365-2.111-10.542-1.157-.402.092-.803-.16-.895-.562-.092-.403.159-.804.562-.896 4.571-1.045 8.492-.595 11.655 1.338.353.215.464.676.248 1.028zm-5.503-17.308c-6.627 0-12 5.373-12 12 0 6.628 5.373 12 12 12 6.628 0 12-5.372 12-12 0-6.627-5.372-12-12-12z"/>
            </svg>
        </symbol>
        <symbol id="icon-reddit">
            <svg aria-hidden="true" width="20" height="20" viewBox="0 0 24 24">
                <path d="M24 11.779c0-1.459-1.192-2.645-2.657-2.645-.715 0-1.363.286-1.84.746-1.81-1.191-4.259-1.949-6.971-2.046l1.483-4.669 4.016.941-.006.058c0 1.193.975 2.163 2.174 2.163 1.198 0 2.172-.97 2.172-2.163s-.975-2.164-2.172-2.164c-.92 0-1.704.574-2.021 1.379l-4.329-1.015c-.189-.046-.381.063-.44.249l-1.654 5.207c-2.838.034-5.409.798-7.3 2.025-.474-.438-1.103-.712-1.799-.712-1.465 0-2.656 1.187-2.656 2.646 0 .97.533 1.811 1.317 2.271-.052.282-.086.567-.086.857 0 3.911 4.808 7.093 10.719 7.093s10.72-3.182 10.72-7.093c0-.274-.029-.544-.075-.81.832-.447 1.405-1.312 1.405-2.318zm-17.224 1.816c0-.868.71-1.575 1.582-1.575.872 0 1.581.707 1.581 1.575s-.709 1.574-1.581 1.574-1.582-.706-1.582-1.574zm9.061 4.669c-.797.793-2.048 1.179-3.824 1.179l-.013-.003-.013.003c-1.777 0-3.028-.386-3.824-1.179-.145-.144-.145-.379 0-.523.145-.145.381-.145.526 0 .65.647 1.729.961 3.298.961l.013.003.013-.003c1.569 0 2.648-.315 3.298-.962.145-.145.381-.144.526 0 .145.145.145.379 0 .524zm-.189-3.095c-.872 0-1.581-.706-1.581-1.574 0-.868.709-1.575 1.581-1.575s1.581.707 1.581 1.575-.709 1.574-1.581 1.574z"/>
            </svg>
        </symbol>
        <symbol id="icon-snapchat">
            <svg aria-hidden="true" width="20" height="20" viewBox="0 0 24 24">
                <path d="M5.829 4.533c-.6 1.344-.363 3.752-.267 5.436-.648.359-1.48-.271-1.951-.271-.49 0-1.075.322-1.167.802-.066.346.089.85 1.201 1.289.43.17 1.453.37 1.69.928.333.784-1.71 4.403-4.918 4.931-.251.041-.43.265-.416.519.056.975 2.242 1.357 3.211 1.507.099.134.179.7.306 1.131.057.193.204.424.582.424.493 0 1.312-.38 2.738-.144 1.398.233 2.712 2.215 5.235 2.215 2.345 0 3.744-1.991 5.09-2.215.779-.129 1.448-.088 2.196.058.515.101.977.157 1.124-.349.129-.437.208-.992.305-1.123.96-.149 3.156-.53 3.211-1.505.014-.254-.165-.477-.416-.519-3.154-.52-5.259-4.128-4.918-4.931.236-.557 1.252-.755 1.69-.928.814-.321 1.222-.716 1.213-1.173-.011-.585-.715-.934-1.233-.934-.527 0-1.284.624-1.897.286.096-1.698.332-4.095-.267-5.438-1.135-2.543-3.66-3.829-6.184-3.829-2.508 0-5.014 1.268-6.158 3.833z"/>
            </svg>
        </symbol>
    </defs>
</svg>